HIERARCHY
ROOT hip
{
	OFFSET 0.000000 0.000000 0.000000 
	CHANNELS 6 Xposition Yposition Zposition Xrotation Zrotation Yrotation
	JOINT abdomen
	{
		OFFSET 0.000000 3.402643 0.000000 
		CHANNELS 3 Xrotation Zrotation Yrotation
		JOINT chest
		{
			OFFSET 0.000000 8.438565 -0.680529 
			CHANNELS 3 Xrotation Zrotation Yrotation
			JOINT neck
			{
				OFFSET 0.000000 10.207942 -0.272212 
				CHANNELS 3 Xrotation Zrotation Yrotation
				JOINT head
				{
					OFFSET 0.000000 3.130431 0.000000 
					CHANNELS 3 Xrotation Zrotation Yrotation
					End Site
					{
						OFFSET 0.000000 3.130435 0.000000 
					}
				}
			}
			JOINT lCollar
			{
				OFFSET 3.470700 6.669187 -0.816635 
				CHANNELS 3 Yrotation Zrotation Xrotation
				JOINT lShldr
				{
					OFFSET 3.198488 0.000000 0.000000 
					CHANNELS 3 Zrotation Yrotation Xrotation
					JOINT lForeArm
					{
						OFFSET 10.139888 0.000000 0.000000 
						CHANNELS 3 Yrotation Zrotation Xrotation
						JOINT lHand
						{
							OFFSET 8.370511 0.000000 0.000000 
							CHANNELS 3 Zrotation Yrotation Xrotation
							End Site
							{
								OFFSET 4.083176 0.000000 0.000000 
							}
						}
					}
				}
			}
			JOINT rCollar
			{
				OFFSET -3.470700 6.669187 -0.816635 
				CHANNELS 3 Yrotation Zrotation Xrotation
				JOINT rShldr
				{
					OFFSET -3.198488 0.000000 0.000000 
					CHANNELS 3 Zrotation Yrotation Xrotation
					JOINT rForeArm
					{
						OFFSET -10.139888 0.000000 0.000000 
						CHANNELS 3 Yrotation Zrotation Xrotation
						JOINT rHand
						{
							OFFSET -8.370511 0.000000 0.000000 
							CHANNELS 3 Zrotation Yrotation Xrotation
							End Site
							{
								OFFSET -4.083176 0.000000 0.000000 
							}
						}
					}
				}
			}
		}
	}
	JOINT lThigh
	{
		OFFSET 5.308129 -1.633274 1.361059 
		CHANNELS 3 Xrotation Zrotation Yrotation
		JOINT lShin
		{
			OFFSET -2.041588 -20.007561 0.000000 
			CHANNELS 3 Xrotation Zrotation Yrotation
			JOINT lFoot
			{
				OFFSET 0.000000 -19.190928 -1.224953 
				CHANNELS 3 Xrotation Yrotation Zrotation
				End Site
				{
					OFFSET 0.000000 -2.449906 4.627600 
				}
			}
		}
	}
	JOINT rThigh
	{
		OFFSET -5.308129 -1.633274 1.361059 
		CHANNELS 3 Xrotation Zrotation Yrotation
		JOINT rShin
		{
			OFFSET 2.041588 -20.007561 0.000000 
			CHANNELS 3 Xrotation Zrotation Yrotation
			JOINT rFoot
			{
				OFFSET 0.000000 -19.190928 -1.224953 
				CHANNELS 3 Xrotation Yrotation Zrotation
				End Site
				{
					OFFSET 0.000000 -2.449906 4.627600 
				}
			}
		}
	}
}
MOTION
Frames: 13
Frame Time: 0.016667
-36.997429 34.902477 133.758682 -20.483027 -24.180799 138.639328 33.369160 -6.239862 0.627665 -29.064606 0.224600 -0.537105 51.489674 7.893232 2.455527 -96.953278 6.407722 -16.187847 12.254040 -12.582285 11.298916 -43.854309 35.267799 -47.425610 -114.484749 1.281668 -2.486330 40.034622 1.271271 -2.286619 -11.916440 12.816881 7.313529 46.923710 -20.432550 -42.062103 97.960327 -0.877365 -3.205321 -10.609200 -53.454659 -27.435751 -88.519165 2.323658 1.561860 68.391212 -2.232948 -5.607090 5.355989 0.736642 4.632300 -84.819588 -9.998290 -19.561882 63.331329 1.992007 4.146706 -9.954183 -23.992167 -28.031950 
-37.260403 34.431553 133.977310 -19.711584 -23.560528 138.156815 34.505894 -6.386486 0.490682 -29.066246 0.488267 -0.439437 51.489674 7.893232 2.455527 -96.866646 6.674057 -16.363811 12.158478 -12.235765 11.266251 -42.905148 34.540234 -46.931927 -114.835114 1.358380 -2.399455 39.684128 1.763021 -2.153920 -12.098741 12.548877 7.348811 47.212826 -20.409214 -42.668682 98.671692 -0.959530 -3.381122 -10.604786 -53.403019 -27.276993 -88.641411 2.421731 1.145370 69.109291 -2.408517 -5.569625 5.162901 0.755513 4.652946 -85.139732 -9.616514 -19.394581 63.860508 1.913912 4.120425 -8.992582 -24.184040 -27.449587 
-37.520000 34.009605 134.192322 -18.998785 -22.864189 137.625854 35.727623 -6.425691 0.304112 -29.065962 0.751945 -0.263649 51.489674 7.893232 2.455527 -96.424026 6.934330 -16.431192 11.973474 -11.798750 11.220955 -42.231712 33.634785 -46.805634 -115.191170 1.260694 -2.582784 39.803799 1.732173 -1.543907 -12.216089 12.280606 7.485819 47.581566 -20.227676 -43.178249 99.279289 -0.943945 -3.207436 -10.070447 -53.362156 -27.765924 -88.656189 2.509582 0.736937 69.359253 -2.418441 -5.433743 4.845054 1.047994 4.458551 -85.370270 -9.384490 -18.798269 64.129326 2.001830 4.279767 -7.983263 -24.689381 -26.989458 
-37.779583 33.587769 134.407318 -18.303064 -22.155600 137.112518 36.950718 -6.464833 0.107838 -29.054293 1.015624 -0.087877 51.489674 7.893232 2.455527 -95.976311 7.203425 -16.509764 11.787228 -11.351958 11.176289 -41.574322 32.725227 -46.702259 -115.547188 1.172958 -2.761378 39.916351 1.706219 -0.927772 -12.330840 12.002153 7.622818 47.949036 -20.042007 -43.682514 99.901291 -0.937172 -3.039745 -9.570466 -53.314800 -28.232197 -88.681610 2.587707 0.328775 69.599586 -2.419066 -5.290590 4.552175 1.348479 4.288073 -85.591980 -9.159056 -18.184624 64.378792 2.099515 4.434745 -6.949261 -25.176476 -26.496159 
-38.035461 33.232521 134.619293 -17.506380 -21.454178 136.572235 37.906990 -6.425778 -0.059319 -29.062500 1.279297 0.000218 51.489674 7.893232 2.455527 -95.194778 7.287787 -16.256811 11.623732 -10.816525 11.216125 -40.893024 31.748898 -46.303753 -115.891602 1.162150 -2.761373 40.310184 1.420202 -0.254885 -12.310094 11.751613 7.546687 47.907356 -19.226749 -44.105213 100.336685 -0.925524 -3.213966 -9.683867 -53.137295 -27.872499 -88.321350 2.675643 0.220162 69.718460 -2.496802 -5.275886 4.426305 1.315560 4.383203 -85.468048 -8.622832 -18.056292 64.470352 2.001969 4.324934 -6.261030 -25.488354 -26.072109 
-38.291340 32.877319 134.831268 -16.719629 -20.748516 136.048447 38.863037 -6.386669 -0.226474 -29.060133 1.542967 0.088122 51.489674 7.893232 2.455527 -94.404030 7.371840 -16.013573 11.448225 -10.285208 11.247919 -40.221981 30.771061 -45.924385 -116.245316 1.161357 -2.761379 40.703072 1.125221 0.414062 -12.298382 11.490116 7.470456 47.857193 -18.400835 -44.524155 100.772224 -0.915176 -3.387593 -9.808504 -52.965275 -27.496611 -87.970055 2.763471 0.123293 69.818466 -2.574782 -5.240235 4.317100 1.254149 4.478522 -85.357254 -8.074802 -17.885925 64.562737 1.914021 4.192097 -5.527805 -25.781219 -25.601637 
-38.543209 32.549160 135.041428 -15.923635 -19.960831 135.605057 39.646885 -6.445203 -0.334318 -28.969919 1.718743 0.156473 51.489674 7.893232 2.455527 -93.176903 7.463051 -15.574295 11.380719 -9.840763 11.290433 -39.700211 29.901459 -45.358879 -116.600441 1.336014 -2.677387 41.094532 0.501744 1.163181 -12.224255 11.317641 7.545115 47.569752 -17.312988 -44.742744 101.126541 -0.917243 -3.300382 -9.703022 -53.129078 -26.947607 -87.717819 2.763601 0.091921 69.893654 -2.584660 -5.330583 4.994284 1.852192 4.463446 -85.086662 -7.626562 -17.079483 64.392952 2.001855 4.299690 -3.966220 -26.253809 -24.382679 
-38.795074 32.221195 135.251556 -15.134195 -19.163864 135.174515 40.430962 -6.503714 -0.443262 -28.878965 1.894515 0.234570 51.489674 7.893232 2.455527 -91.948479 7.554146 -15.133780 11.301448 -9.400236 11.324528 -39.192112 29.015484 -44.801994 -116.955826 1.500709 -2.594576 41.478252 -0.124386 1.910146 -12.146493 11.137761 7.610526 47.267567 -16.231571 -44.951729 101.478638 -0.908874 -3.212416 -9.577602 -53.284031 -26.423752 -87.453690 2.772897 0.079756 69.998070 -2.575327 -5.419901 5.679241 2.428607 4.464952 -84.787842 -7.185582 -16.258570 64.203598 2.108222 4.407223 -2.397967 -26.704273 -23.149118 
-39.042690 32.002304 135.459274 -14.331470 -18.380621 134.705017 40.865276 -6.386394 -0.580200 -28.790712 1.982405 0.234572 51.489674 7.893232 2.455527 -89.923843 7.474523 -14.421785 11.312242 -8.860553 11.361941 -38.692913 27.943817 -44.704613 -117.126640 1.414994 -2.505750 41.786850 -0.340630 2.550343 -11.947195 10.972082 7.473642 46.450783 -14.780300 -44.900791 101.656166 -1.079148 -3.300645 -9.372332 -53.153309 -25.553026 -87.010567 2.851488 0.040651 69.906578 -2.340547 -5.177835 6.500374 2.357143 4.750647 -84.311325 -6.756639 -16.112886 63.862965 2.186332 4.360116 -1.109196 -26.637272 -22.755257 
-39.290310 31.783569 135.666992 -13.542555 -17.586220 134.235229 41.289131 -6.259279 -0.718223 -28.702856 2.060531 0.224815 51.489674 7.893232 2.455527 -87.898125 7.373824 -13.718203 11.320904 -8.322738 11.390829 -38.204880 26.867517 -44.619312 -117.296829 1.320038 -2.420024 42.086040 -0.563239 3.188260 -11.748733 10.805547 7.336598 45.636349 -13.325537 -44.871632 101.832748 -1.249784 -3.389960 -9.135418 -53.020214 -24.704922 -86.564468 2.938783 0.032890 69.825005 -2.067641 -4.911551 7.315506 2.267780 5.060854 -83.823029 -6.336520 -15.989606 63.502338 2.245971 4.319285 0.170778 -26.558708 -22.374292 
-39.533306 31.657358 135.874100 -12.753404 -16.794312 133.708237 41.370647 -6.083562 -0.678313 -28.530783 1.972651 0.127214 51.489674 7.893232 2.455527 -84.809418 7.055453 -12.556980 11.602258 -7.796554 11.431296 -38.166733 25.712200 -44.910240 -117.301666 1.226353 -2.596729 42.511181 -0.979542 3.698533 -11.572711 10.808122 7.340778 44.800034 -11.985515 -44.559147 101.744751 -1.246481 -3.478308 -9.551083 -52.869698 -23.531006 -85.852005 3.212352 0.010053 69.561279 -2.321553 -4.972414 8.033806 2.611177 5.128367 -83.290466 -5.996140 -15.504898 63.073818 2.181884 4.248366 1.538278 -26.567043 -21.215130 
-39.776306 31.531290 136.081192 -11.955427 -16.002501 133.191422 41.461163 -5.907850 -0.628717 -28.368177 1.884766 0.029602 51.489674 7.893232 2.455527 -81.733719 6.673427 -11.405829 11.870073 -7.264105 11.461708 -38.129841 24.545635 -45.203239 -117.295860 1.141994 -2.772441 42.923149 -1.409411 4.210279 -11.396675 10.810713 7.344893 43.978924 -10.634304 -44.276546 101.655563 -1.252644 -3.565399 -9.978209 -52.716465 -22.358894 -85.131424 3.475850 -0.026642 69.297348 -2.575385 -5.021944 8.746434 2.942269 5.197951 -82.721893 -5.624352 -15.016576 62.635853 2.079980 4.165185 2.920695 -26.534845 -20.042389 
-40.014458 31.485069 136.287094 -11.172367 -15.030835 132.858902 41.176872 -5.634408 -0.648129 -28.103277 1.708968 -0.253793 51.489674 7.893232 2.455527 -78.125854 6.008440 -10.163756 12.100458 -6.881723 11.694207 -38.175236 23.134169 -45.423649 -117.119110 1.145371 -2.683969 43.308685 -1.502849 4.568765 -11.021837 11.076342 7.231218 43.132256 -9.215353 -43.760056 101.657478 -1.351035 -3.476584 -10.891260 -52.885880 -21.006956 -84.479774 3.729976 0.067153 69.032486 -2.486608 -5.277338 9.421498 3.441998 5.424611 -81.755669 -5.536943 -15.060750 62.097088 2.333879 4.184061 4.349218 -26.198853 -19.699902 
